# xmcd
# 
# Track frame offsets:
#     150
#     90469
#     110163
#     201073
#     219636
#     310014
# 
# Disc length: 4356
# 
# Revision: 0
# Processed by: cddbd v1.5.2PL0 Copyright (c) Steve Scherf et al.
# Submitted via: BonkEnc v1.0.15
# 
DISCID=4e110206
DTITLE=Various Artist - World Tracks
DYEAR=0
DGENRE=Blues
TTITLE0=Blind Lemon Jefferson and Kwabena Nyama - 1_world tracks 22
TTITLE1=Blind Lemon Blues Show - Motherless child
TTITLE2=Lucky Peterson and Boney Fields - 3_world tracks 23-Groundbreaking blues
TTITLE3=Lucky Peterson - 4_world tracks bonus 23-Black midnight sun
TTITLE4=World Sacred Music in Morocco - 5_world tracks  24-The Fes festival
TTITLE5=Gilberto Gil - 6_world tracks bonus 24-Guerra santa
EXTD=
EXTT0=
EXTT1=
EXTT2=
EXTT3=
EXTT4=
EXTT5=
PLAYORDER=
